
<svg xmlns="http://www.w3.org/2000/svg" viewBox="0 0 594 120.185">
  <path
    fill="#fff"
    d="M325.868,119.076c-7.9-10.666-16.3-23.6-18.748-38.72a2.743,2.743,0,0,1,2.266-3.148,2.8,2.8,0,0,1,.441-.034,2.734,2.734,0,0,1,2.7,2.3c2.254,13.918,9.859,25.685,17.743,36.331a2.748,2.748,0,0,1-.572,3.839,2.74,2.74,0,0,1-3.831-.572Zm-16.516-1.459c-1.63-2.734-2.247-3.64-2.435-3.9-4.847-6.68-8.5-8.611-11.731-10.316-.38-.2-.748-.4-1.1-.588-2.853-1.559-6.439-1.083-10.232-.58-1.411.188-2.872.38-4.3.464h-.065c-10.159.342-11.966-4.323-12.437-7.867-.049-.4-.38-2.238-2.408-11.034a2.747,2.747,0,0,1,2.056-3.29,2.727,2.727,0,0,1,3.287,2.055c2.071,8.984,2.42,10.9,2.5,11.568.2,1.535.453,3.294,6.784,3.087,1.215-.069,2.5-.242,3.861-.423,4.291-.568,9.15-1.217,13.576,1.2q.5.27,1.036.553c3.382,1.785,8.015,4.234,13.605,11.944.518.714,1.431,2.169,2.712,4.319a2.741,2.741,0,1,1-4.709,2.807Zm31.43.272A184.7,184.7,0,0,1,327.759,99.4a2.738,2.738,0,0,1,.97-3.755,2.7,2.7,0,0,1,1.389-.384,2.735,2.735,0,0,1,2.362,1.352,175.229,175.229,0,0,0,12.64,17.925,2.741,2.741,0,1,1-4.337,3.352Zm7.271-10.519-.185-.257c-2.926-4.1-5.457-7.64-6.093-15.956-.3-4.722,2.3-8.823,4.594-12.435.549-.872,1.07-1.689,1.55-2.511l.034-.058a63.835,63.835,0,0,0,9.035-24.338,53.957,53.957,0,0,0,.5-5.816,2.727,2.727,0,0,1,2.723-2.661l.1,0a2.745,2.745,0,0,1,2.658,2.825,59.057,59.057,0,0,1-.556,6.416,69.424,69.424,0,0,1-9.782,26.433c-.526.895-1.09,1.782-1.638,2.642-2.025,3.194-3.935,6.212-3.754,9.114.517,6.754,2.339,9.3,5.089,13.15l.184.261a2.74,2.74,0,0,1-2.228,4.334h-.014A2.718,2.718,0,0,1,348.053,107.37Zm-51.111-15.4-.1-.376c-.526-1.877-1.315-4.719-1.679-6.573a2.741,2.741,0,1,1,5.38-1.056c.322,1.643,1.077,4.358,1.579,6.158l.1.376a2.741,2.741,0,0,1-1.905,3.379,2.7,2.7,0,0,1-.733.1A2.742,2.742,0,0,1,296.942,91.966Zm26.066-2A52.692,52.692,0,0,1,319.065,74.5a2.737,2.737,0,0,1,2.474-2.983,1.916,1.916,0,0,1,.257-.012,2.739,2.739,0,0,1,2.727,2.488A47.235,47.235,0,0,0,328.07,87.87a2.748,2.748,0,0,1-1.484,3.586,2.741,2.741,0,0,1-3.577-1.486Zm-39.8-.437c-.26-1.137-.487-2.219-.686-3.314a12.1,12.1,0,0,1,7.911-13.694,201.549,201.549,0,0,0,24.935-11.3,9.8,9.8,0,0,0,5.177-7.007,9.963,9.963,0,0,0,.107-2.8,2.742,2.742,0,0,1,2.439-3.014,2.311,2.311,0,0,1,.283-.015A2.74,2.74,0,0,1,326.1,50.84,15.376,15.376,0,0,1,317.877,66.1a205.853,205.853,0,0,1-25.625,11.6,6.643,6.643,0,0,0-4.345,7.518c.188,1.017.4,2.03.641,3.086a2.741,2.741,0,1,1-5.342,1.229ZM826.94,86.708a16.653,16.653,0,0,1-1.71-1.147,14.762,14.762,0,0,1-5.856-10.266l8.529-.9a6.423,6.423,0,0,0,3.317,4.874,7.17,7.17,0,0,0,6.492.407,6.846,6.846,0,0,0,1.255-.729,5.991,5.991,0,0,0,2.446-5.119c-.176-2.777-2.332-4.138-7.205-6.577-4.809-2.408-10.8-5.4-11.635-12.643A12.527,12.527,0,0,1,841.3,42.25a12.289,12.289,0,0,1,6.3,9.537l-8.532.878a3.773,3.773,0,0,0-1.967-2.938,4.245,4.245,0,0,0-3.828-.2,4.093,4.093,0,0,0-2.185,4.1c.275,2.373,2.435,3.7,6.956,5.963,4.817,2.412,11.417,5.714,11.927,13.7a14.636,14.636,0,0,1-5.568,12.28c-.115.088-.215.192-.33.276a15.1,15.1,0,0,1-2.857,1.668,15.441,15.441,0,0,1-6.308,1.338A16.027,16.027,0,0,1,826.94,86.708Zm-163.821-.952V43.4h19.507c10.136,0,18.381,6.979,18.381,15.551,0,6.837-5.251,12.658-12.517,14.733L699.013,85.56H687.551L676.1,72.641V65.922h6.527c5.315,0,9.8-3.191,9.8-6.968s-4.487-6.972-9.8-6.972H671.693V85.756Zm-76.673-.073V43.423h20.167c10.132,0,18.377,6.975,18.377,15.55S616.746,74.52,606.614,74.52h-7.022V65.941h7.022c5.312,0,9.8-3.19,9.8-6.968S611.925,52,606.614,52H595.025V85.683Zm-148.175-.124V43.4h8.577V78.026h24.637v7.532Zm334.4,0L760.251,59.378,747.593,85.556h-9.528l22.261-46.035,21.833,46.035Zm-233.611,0L526.643,59.378,513.984,85.556h-9.528l22.262-46.035L548.55,85.556ZM332.924,80.641a48.242,48.242,0,0,1-1.587-11.833,2.741,2.741,0,0,1,2.7-2.783h.039a2.744,2.744,0,0,1,2.741,2.706,42.72,42.72,0,0,0,1.4,10.485,2.743,2.743,0,0,1-1.937,3.36,2.7,2.7,0,0,1-.713.1A2.745,2.745,0,0,1,332.924,80.641Zm-68.8-6.262a18.012,18.012,0,0,1-5.675-2.111,4.562,4.562,0,0,1-2.385-3.153,5.7,5.7,0,0,1,1.515-4.487c.774-.945,1.7-1.94,2.68-2.991,3.026-3.253,6.788-7.3,6.62-10.635A14.846,14.846,0,0,0,266.275,48a18.753,18.753,0,0,1-.813-4.527,35.614,35.614,0,0,1,1.66-10.519,90.352,90.352,0,0,1,3.08-8.85,2.746,2.746,0,0,1,2.485-1.582,2.707,2.707,0,0,1,1.157.262,2.739,2.739,0,0,1,1.319,3.647c-.859,1.835-2.3,6.435-2.78,8.047a30.645,30.645,0,0,0-1.442,8.865,14.069,14.069,0,0,0,.621,3.226,19.476,19.476,0,0,1,.79,4.162c.287,5.651-4.352,10.642-8.08,14.651-.851.914-1.661,1.785-2.3,2.552a12.507,12.507,0,0,0,3.183,1.06,2.744,2.744,0,0,1-.507,5.44A2.659,2.659,0,0,1,264.128,74.379Zm10.094-7.686a2.739,2.739,0,0,1,2.125-3.245c11.2-2.338,22.564-7.916,33.244-13.433a2.7,2.7,0,0,1,1.25-.307A2.745,2.745,0,0,1,312.1,54.89c-11.014,5.69-22.76,11.453-34.641,13.929a2.778,2.778,0,0,1-.563.058A2.74,2.74,0,0,1,274.221,66.693Zm72.874-4.043a2.743,2.743,0,0,1-2.14-3.236,35.507,35.507,0,0,0,.694-6.961,2.74,2.74,0,1,1,5.48,0,40.669,40.669,0,0,1-.806,8.051,2.736,2.736,0,0,1-2.68,2.2A3.006,3.006,0,0,1,347.095,62.65Zm-12.118-2.289a2.742,2.742,0,0,1-2.224-3.179c.153-.883.268-1.616.356-2.315a21.424,21.424,0,0,0-6.6-18.264A23.053,23.053,0,0,0,306.8,30.369a2.744,2.744,0,0,1-.924-5.409,26.966,26.966,0,0,1,4.583-.388,28.839,28.839,0,0,1,19.834,8.066,26.85,26.85,0,0,1,8.252,22.913c-.1.791-.226,1.613-.4,2.584a2.74,2.74,0,0,1-2.692,2.269A2.913,2.913,0,0,1,334.976,60.361Zm-57.258-7.34a2.747,2.747,0,0,1,1.791-3.44c8.091-2.55,16.574-6.788,23.891-10.562a16.129,16.129,0,0,1,7.385-1.781,15.673,15.673,0,0,1,9.1,2.857,2.742,2.742,0,1,1-3.179,4.468,10.488,10.488,0,0,0-10.792-.668c-7.52,3.882-16.251,8.239-24.757,10.922a2.736,2.736,0,0,1-3.436-1.8ZM344.18,42.282A35.357,35.357,0,0,0,323.844,20.39a2.742,2.742,0,0,1,1.035-5.283,2.715,2.715,0,0,1,1.028.2,40.891,40.891,0,0,1,23.5,25.34,2.74,2.74,0,1,1-5.231,1.635ZM278.8,39.472a2.748,2.748,0,0,1,1.557-3.556c5.077-1.985,10.343-4.58,14.358-6.615l.59-.3a2.742,2.742,0,0,1,2.481,4.891l-.595.307c-4.126,2.093-9.541,4.761-14.841,6.835a2.79,2.79,0,0,1-1,.188A2.743,2.743,0,0,1,278.8,39.472ZM353.775,28.63c-2.757-5.034-7.121-9.741-12.965-14A47.7,47.7,0,0,0,289.5,11.522,2.743,2.743,0,0,1,286.83,6.73a53.174,53.174,0,0,1,57.2,3.463c6.5,4.738,11.4,10.051,14.549,15.8a2.742,2.742,0,1,1-4.805,2.641Zm-67.064-5.383a2.744,2.744,0,0,1,.667-3.82,39.635,39.635,0,0,1,22.867-7.206,40.9,40.9,0,0,1,4.829.288,2.744,2.744,0,0,1-.648,5.449,34.317,34.317,0,0,0-23.9,5.954,2.732,2.732,0,0,1-3.82-.664Z"
    transform="translate(-256)"
  />
</svg>
